<svg width="205" height="153" viewBox="0 0 205 153" fill="none" xmlns="http://www.w3.org/2000/svg">
<g id="Group 2">
<path id="Vector 2" d="M95 28L82.5 57L96 91.5H69L60.5 112H104L119.5 150H142.5L95 28Z" fill="#FF5851" stroke="black"/>
<path id="Vector 3" d="M182 14V1.5H203.5V14H182Z" fill="#FF5851" stroke="black"/>
<path id="Vector 4" d="M182 14V22.5H203.5V14H182Z" fill="white" stroke="black"/>
<g id="Frame 4">
<rect width="21.5" height="39" transform="translate(182 23)" fill="#FF5851"/>
<path id="Vector 5" d="M182 23V62H203.5V23.4837" stroke="black"/>
<path id="Vector 7" d="M183.956 23H182H204" stroke="black"/>
</g>
<path id="Vector 1" d="M23.8606 150.5L83 1H61.1333L1 150.5H23.8606Z" fill="#FF5851" stroke="black"/>
<g id="Vector 6">
<path d="M204 111V83H182.087V113C181.723 117.787 180.93 120.419 178.519 125C175.314 129.538 172.801 131.274 165.779 131.5C159.865 131.38 156.633 130.811 151 129V149.5C156.904 151.281 160.137 151.814 165.779 152C172.815 152.159 177.49 151.439 184 149C192.704 144.749 195.48 141.433 199.923 134C202.749 126.923 203.542 122.735 204 115V111Z" fill="#FF5851"/>
<path d="M204 82.5V111V115C203.542 122.735 202.749 126.923 199.923 134C195.48 141.433 192.704 144.749 184 149C177.49 151.439 172.815 152.159 165.779 152C160.137 151.814 156.904 151.281 151 149.5V129C156.633 130.811 159.865 131.38 165.779 131.5C172.801 131.274 175.314 129.538 178.519 125C180.93 120.419 181.723 117.787 182.087 113V83H204" stroke="black"/>
</g>
</g>
</svg>
